<svg width="100" height="100" viewBox="0 0 100 100" fill="none" xmlns="http://www.w3.org/2000/svg">
<rect width="100" height="100" rx="50" fill="#F9A73E"/>
<path d="M50.5 44.3833C53.3719 44.3833 55.7 42.0552 55.7 39.1833C55.7 36.3115 53.3719 33.9833 50.5 33.9833C47.6282 33.9833 45.3 36.3115 45.3 39.1833C45.3 42.0552 47.6282 44.3833 50.5 44.3833Z" stroke="#1E1E1E" stroke-width="2"/>
<path d="M36.5334 36.15C39.8167 21.7167 61.2 21.7333 64.4667 36.1667C66.3834 44.6333 61.1167 51.8 56.5 56.2333C53.15 59.4667 47.85 59.4667 44.4834 56.2333C39.8834 51.8 34.6167 44.6167 36.5334 36.15Z" stroke="#1E1E1E" stroke-width="2"/>
<path d="M25.8608 76V67.2727H27.4418V74.6747H31.2855V76H25.8608ZM35.4446 76.1278C34.8054 76.1278 34.2514 75.9872 33.7827 75.706C33.3139 75.4247 32.9503 75.0312 32.6918 74.5256C32.4361 74.0199 32.3082 73.429 32.3082 72.7528C32.3082 72.0767 32.4361 71.4844 32.6918 70.9759C32.9503 70.4673 33.3139 70.0724 33.7827 69.7912C34.2514 69.5099 34.8054 69.3693 35.4446 69.3693C36.0838 69.3693 36.6378 69.5099 37.1065 69.7912C37.5753 70.0724 37.9375 70.4673 38.1932 70.9759C38.4517 71.4844 38.581 72.0767 38.581 72.7528C38.581 73.429 38.4517 74.0199 38.1932 74.5256C37.9375 75.0312 37.5753 75.4247 37.1065 75.706C36.6378 75.9872 36.0838 76.1278 35.4446 76.1278ZM35.4531 74.892C35.7997 74.892 36.0895 74.7969 36.3224 74.6065C36.5554 74.4134 36.7287 74.1548 36.8423 73.831C36.9588 73.5071 37.017 73.1463 37.017 72.7486C37.017 72.348 36.9588 71.9858 36.8423 71.6619C36.7287 71.3352 36.5554 71.0753 36.3224 70.8821C36.0895 70.6889 35.7997 70.5923 35.4531 70.5923C35.098 70.5923 34.8026 70.6889 34.5668 70.8821C34.3338 71.0753 34.1591 71.3352 34.0426 71.6619C33.929 71.9858 33.8722 72.348 33.8722 72.7486C33.8722 73.1463 33.929 73.5071 34.0426 73.831C34.1591 74.1548 34.3338 74.4134 34.5668 74.6065C34.8026 74.7969 35.098 74.892 35.4531 74.892ZM42.7454 76.1278C42.092 76.1278 41.5309 75.9844 41.0621 75.6974C40.5962 75.4105 40.2369 75.0142 39.984 74.5085C39.734 74 39.609 73.4148 39.609 72.7528C39.609 72.0881 39.7369 71.5014 39.9925 70.9929C40.2482 70.4815 40.609 70.0838 41.0749 69.7997C41.5437 69.5128 42.0977 69.3693 42.7369 69.3693C43.2681 69.3693 43.7383 69.4673 44.1474 69.6634C44.5593 69.8565 44.8874 70.1307 45.1317 70.4858C45.3761 70.8381 45.5153 71.25 45.5494 71.7216H44.0749C44.0153 71.4062 43.8732 71.1435 43.6488 70.9332C43.4272 70.7202 43.1303 70.6136 42.7582 70.6136C42.4428 70.6136 42.1658 70.6989 41.9272 70.8693C41.6886 71.0369 41.5025 71.2784 41.369 71.5938C41.2383 71.9091 41.1729 72.2869 41.1729 72.7273C41.1729 73.1733 41.2383 73.5568 41.369 73.8778C41.4996 74.196 41.6829 74.4418 41.9187 74.6151C42.1573 74.7855 42.4371 74.8707 42.7582 74.8707C42.9854 74.8707 43.1886 74.8281 43.3675 74.7429C43.5494 74.6548 43.7013 74.5284 43.8235 74.3636C43.9457 74.1989 44.0295 73.9986 44.0749 73.7628H45.5494C45.5124 74.2259 45.3761 74.6364 45.1403 74.9943C44.9045 75.3494 44.5835 75.6278 44.1772 75.8295C43.771 76.0284 43.2937 76.1278 42.7454 76.1278ZM48.6996 76.1321C48.2848 76.1321 47.9112 76.0582 47.5788 75.9105C47.2493 75.7599 46.9879 75.5384 46.7947 75.2457C46.6044 74.9531 46.5092 74.5923 46.5092 74.1634C46.5092 73.794 46.5774 73.4886 46.7138 73.2472C46.8501 73.0057 47.0362 72.8125 47.272 72.6676C47.5078 72.5227 47.7734 72.4134 48.0689 72.3395C48.3672 72.2628 48.6754 72.2074 48.9936 72.1733C49.3771 72.1335 49.6882 72.098 49.9268 72.0668C50.1655 72.0327 50.3388 71.9815 50.4467 71.9134C50.5575 71.8423 50.6129 71.733 50.6129 71.5852V71.5597C50.6129 71.2386 50.5178 70.9901 50.3274 70.8139C50.1371 70.6378 49.8629 70.5497 49.505 70.5497C49.1271 70.5497 48.8274 70.6321 48.6058 70.7969C48.3871 70.9616 48.2393 71.1562 48.1626 71.3807L46.7223 71.1761C46.8359 70.7784 47.0234 70.446 47.2848 70.179C47.5462 69.9091 47.8658 69.7074 48.2436 69.5739C48.6214 69.4375 49.0391 69.3693 49.4964 69.3693C49.8118 69.3693 50.1257 69.4062 50.4382 69.4801C50.7507 69.554 51.0362 69.6761 51.2947 69.8466C51.5533 70.0142 51.7607 70.2429 51.9169 70.5327C52.076 70.8224 52.1555 71.1847 52.1555 71.6193V76H50.6726V75.1009H50.6214C50.5277 75.2827 50.3956 75.4531 50.2251 75.6122C50.0575 75.7685 49.8459 75.8949 49.5902 75.9915C49.3374 76.0852 49.0405 76.1321 48.6996 76.1321ZM49.1001 74.9986C49.4098 74.9986 49.6783 74.9375 49.9055 74.8153C50.1328 74.6903 50.3075 74.5256 50.4297 74.321C50.5547 74.1165 50.6172 73.8935 50.6172 73.652V72.8807C50.5689 72.9205 50.4865 72.9574 50.37 72.9915C50.2564 73.0256 50.1286 73.0554 49.9865 73.081C49.8445 73.1065 49.7038 73.1293 49.5646 73.1491C49.4254 73.169 49.3047 73.1861 49.2024 73.2003C48.9723 73.2315 48.7663 73.2827 48.5845 73.3537C48.4027 73.4247 48.2592 73.5241 48.1541 73.652C48.049 73.777 47.9964 73.9389 47.9964 74.1378C47.9964 74.4219 48.1001 74.6364 48.3075 74.7812C48.5149 74.9261 48.7791 74.9986 49.1001 74.9986ZM56.9751 69.4545V70.6477H53.2124V69.4545H56.9751ZM54.1413 67.8864H55.6839V74.0312C55.6839 74.2386 55.7152 74.3977 55.7777 74.5085C55.843 74.6165 55.9283 74.6903 56.0334 74.7301C56.1385 74.7699 56.255 74.7898 56.3828 74.7898C56.4794 74.7898 56.5675 74.7827 56.647 74.7685C56.7294 74.7543 56.7919 74.7415 56.8345 74.7301L57.0945 75.9361C57.0121 75.9645 56.8942 75.9957 56.7408 76.0298C56.5902 76.0639 56.4055 76.0838 56.1868 76.0895C55.8004 76.1009 55.4524 76.0426 55.1428 75.9148C54.8331 75.7841 54.5874 75.5824 54.4055 75.3097C54.2266 75.0369 54.1385 74.696 54.1413 74.2869V67.8864ZM58.2653 76V69.4545H59.8079V76H58.2653ZM59.0408 68.5256C58.7965 68.5256 58.5863 68.4446 58.4102 68.2827C58.234 68.1179 58.146 67.9205 58.146 67.6903C58.146 67.4574 58.234 67.2599 58.4102 67.098C58.5863 66.9332 58.7965 66.8509 59.0408 66.8509C59.288 66.8509 59.4982 66.9332 59.6715 67.098C59.8477 67.2599 59.9357 67.4574 59.9357 67.6903C59.9357 67.9205 59.8477 68.1179 59.6715 68.2827C59.4982 68.4446 59.288 68.5256 59.0408 68.5256ZM64.2493 76.1278C63.6101 76.1278 63.0561 75.9872 62.5874 75.706C62.1186 75.4247 61.755 75.0312 61.4964 74.5256C61.2408 74.0199 61.1129 73.429 61.1129 72.7528C61.1129 72.0767 61.2408 71.4844 61.4964 70.9759C61.755 70.4673 62.1186 70.0724 62.5874 69.7912C63.0561 69.5099 63.6101 69.3693 64.2493 69.3693C64.8885 69.3693 65.4425 69.5099 65.9112 69.7912C66.38 70.0724 66.7422 70.4673 66.9979 70.9759C67.2564 71.4844 67.3857 72.0767 67.3857 72.7528C67.3857 73.429 67.2564 74.0199 66.9979 74.5256C66.7422 75.0312 66.38 75.4247 65.9112 75.706C65.4425 75.9872 64.8885 76.1278 64.2493 76.1278ZM64.2578 74.892C64.6044 74.892 64.8942 74.7969 65.1271 74.6065C65.3601 74.4134 65.5334 74.1548 65.647 73.831C65.7635 73.5071 65.8217 73.1463 65.8217 72.7486C65.8217 72.348 65.7635 71.9858 65.647 71.6619C65.5334 71.3352 65.3601 71.0753 65.1271 70.8821C64.8942 70.6889 64.6044 70.5923 64.2578 70.5923C63.9027 70.5923 63.6072 70.6889 63.3714 70.8821C63.1385 71.0753 62.9638 71.3352 62.8473 71.6619C62.7337 71.9858 62.6768 72.348 62.6768 72.7486C62.6768 73.1463 62.7337 73.5071 62.8473 73.831C62.9638 74.1548 63.1385 74.4134 63.3714 74.6065C63.6072 74.7969 63.9027 74.892 64.2578 74.892ZM70.2376 72.1648V76H68.695V69.4545H70.1694V70.5668H70.2461C70.3967 70.2003 70.6367 69.9091 70.9663 69.6932C71.2987 69.4773 71.7092 69.3693 72.1978 69.3693C72.6495 69.3693 73.043 69.4659 73.3782 69.6591C73.7163 69.8523 73.9776 70.1321 74.1623 70.4986C74.3498 70.8651 74.4421 71.3097 74.4393 71.8324V76H72.8967V72.071C72.8967 71.6335 72.783 71.2912 72.5558 71.044C72.3313 70.7969 72.0202 70.6733 71.6225 70.6733C71.3526 70.6733 71.1126 70.733 70.9023 70.8523C70.695 70.9687 70.5316 71.1378 70.4123 71.3594C70.2958 71.581 70.2376 71.8494 70.2376 72.1648Z" fill="#1E1E1E"/>
</svg>
