<svg width="100" height="100" viewBox="0 0 100 100" fill="none" xmlns="http://www.w3.org/2000/svg">
<rect width="100" height="100" rx="50" fill="#F9A73E"/>
<path d="M50 51V46" stroke="#1E1E1E" stroke-width="2" stroke-linecap="round" stroke-linejoin="round"/>
<path d="M46.7833 25.7L35.2333 34.95C33.9333 35.9833 33.1 38.1667 33.3833 39.8L35.6 53.0667C36 55.4333 38.2667 57.35 40.6667 57.35H59.3333C61.7167 57.35 64 55.4167 64.4 53.0667L66.6167 39.8C66.8833 38.1667 66.05 35.9833 64.7667 34.95L53.2167 25.7167C51.4333 24.2833 48.55 24.2833 46.7833 25.7Z" stroke="#1E1E1E" stroke-width="2" stroke-linecap="round" stroke-linejoin="round"/>
<path d="M33.6591 72.6364C33.6591 73.5767 33.483 74.3821 33.1307 75.0526C32.7813 75.7202 32.304 76.2315 31.6989 76.5866C31.0966 76.9418 30.4134 77.1193 29.6491 77.1193C28.8849 77.1193 28.2003 76.9418 27.5952 76.5866C26.9929 76.2287 26.5156 75.7159 26.1634 75.0483C25.8139 74.3778 25.6392 73.5739 25.6392 72.6364C25.6392 71.696 25.8139 70.892 26.1634 70.2244C26.5156 69.554 26.9929 69.0412 27.5952 68.6861C28.2003 68.331 28.8849 68.1534 29.6491 68.1534C30.4134 68.1534 31.0966 68.331 31.6989 68.6861C32.304 69.0412 32.7813 69.554 33.1307 70.2244C33.483 70.892 33.6591 71.696 33.6591 72.6364ZM32.0696 72.6364C32.0696 71.9744 31.9659 71.4162 31.7585 70.9616C31.554 70.5043 31.2699 70.1591 30.9062 69.9261C30.5426 69.6903 30.1236 69.5724 29.6491 69.5724C29.1747 69.5724 28.7557 69.6903 28.392 69.9261C28.0284 70.1591 27.7429 70.5043 27.5355 70.9616C27.331 71.4162 27.2287 71.9744 27.2287 72.6364C27.2287 73.2983 27.331 73.858 27.5355 74.3153C27.7429 74.7699 28.0284 75.1151 28.392 75.3509C28.7557 75.5838 29.1747 75.7003 29.6491 75.7003C30.1236 75.7003 30.5426 75.5838 30.9062 75.3509C31.2699 75.1151 31.554 74.7699 31.7585 74.3153C31.9659 73.858 32.0696 73.2983 32.0696 72.6364ZM35.0856 79.4545V70.4545H36.6026V71.5369H36.6921C36.7717 71.3778 36.8839 71.2088 37.0288 71.0298C37.1737 70.848 37.3697 70.6932 37.6168 70.5653C37.864 70.4347 38.1793 70.3693 38.5629 70.3693C39.0685 70.3693 39.5245 70.4986 39.9308 70.7571C40.3398 71.0128 40.6637 71.392 40.9023 71.8949C41.1438 72.3949 41.2646 73.0085 41.2646 73.7358C41.2646 74.4545 41.1467 75.0653 40.9109 75.5682C40.6751 76.071 40.354 76.4545 39.9478 76.7188C39.5415 76.983 39.0813 77.1151 38.5671 77.1151C38.1921 77.1151 37.881 77.0526 37.6339 76.9276C37.3867 76.8026 37.1879 76.652 37.0373 76.4759C36.8896 76.2969 36.7745 76.1278 36.6921 75.9688H36.6282V79.4545H35.0856ZM36.5984 73.7273C36.5984 74.1506 36.658 74.5213 36.7773 74.8395C36.8995 75.1577 37.0742 75.4062 37.3015 75.5852C37.5316 75.7614 37.81 75.8494 38.1367 75.8494C38.4776 75.8494 38.7631 75.7585 38.9933 75.5767C39.2234 75.392 39.3967 75.1406 39.5131 74.8224C39.6325 74.5014 39.6921 74.1364 39.6921 73.7273C39.6921 73.321 39.6339 72.9602 39.5174 72.6449C39.4009 72.3295 39.2276 72.0824 38.9975 71.9034C38.7674 71.7244 38.4805 71.6349 38.1367 71.6349C37.8072 71.6349 37.5273 71.7216 37.2972 71.8949C37.0671 72.0682 36.8924 72.3111 36.7731 72.6236C36.6566 72.9361 36.5984 73.304 36.5984 73.7273ZM45.4833 77.1278C44.8271 77.1278 44.2603 76.9915 43.783 76.7188C43.3086 76.4432 42.9435 76.054 42.6879 75.5511C42.4322 75.0455 42.3043 74.4503 42.3043 73.7656C42.3043 73.0923 42.4322 72.5014 42.6879 71.9929C42.9464 71.4815 43.3072 71.0838 43.7702 70.7997C44.2333 70.5128 44.7773 70.3693 45.4023 70.3693C45.8058 70.3693 46.1864 70.4347 46.5444 70.5653C46.9052 70.6932 47.2234 70.892 47.4989 71.1619C47.7773 71.4318 47.9961 71.7756 48.1552 72.1932C48.3143 72.608 48.3938 73.1023 48.3938 73.6761V74.1491H43.0288V73.1094H46.9151C46.9123 72.8139 46.8484 72.5511 46.7234 72.321C46.5984 72.0881 46.4237 71.9048 46.1992 71.7713C45.9776 71.6378 45.7191 71.571 45.4237 71.571C45.1083 71.571 44.8313 71.6477 44.5927 71.8011C44.354 71.9517 44.168 72.1506 44.0344 72.3977C43.9038 72.642 43.837 72.9105 43.8342 73.2031V74.1108C43.8342 74.4915 43.9038 74.8182 44.043 75.0909C44.1822 75.3608 44.3768 75.5682 44.6268 75.7131C44.8768 75.8551 45.1694 75.9261 45.5046 75.9261C45.729 75.9261 45.9322 75.8949 46.114 75.8324C46.2958 75.767 46.4535 75.6719 46.587 75.5469C46.7205 75.4219 46.8214 75.267 46.8896 75.0824L48.3299 75.2443C48.239 75.625 48.0657 75.9574 47.81 76.2415C47.5572 76.5227 47.2333 76.7415 46.8384 76.8977C46.4435 77.0511 45.9918 77.1278 45.4833 77.1278ZM51.2415 73.1648V77H49.6989V70.4545H51.1733V71.5668H51.25C51.4006 71.2003 51.6406 70.9091 51.9702 70.6932C52.3026 70.4773 52.7131 70.3693 53.2017 70.3693C53.6534 70.3693 54.0469 70.4659 54.3821 70.6591C54.7202 70.8523 54.9815 71.1321 55.1662 71.4986C55.3537 71.8651 55.446 72.3097 55.4432 72.8324V77H53.9006V73.071C53.9006 72.6335 53.7869 72.2912 53.5597 72.044C53.3352 71.7969 53.0241 71.6733 52.6264 71.6733C52.3565 71.6733 52.1165 71.733 51.9062 71.8523C51.6989 71.9687 51.5355 72.1378 51.4162 72.3594C51.2997 72.581 51.2415 72.8494 51.2415 73.1648ZM57.0114 77V70.4545H58.554V77H57.0114ZM57.7869 69.5256C57.5426 69.5256 57.3324 69.4446 57.1562 69.2827C56.9801 69.1179 56.892 68.9205 56.892 68.6903C56.892 68.4574 56.9801 68.2599 57.1562 68.098C57.3324 67.9332 57.5426 67.8509 57.7869 67.8509C58.0341 67.8509 58.2443 67.9332 58.4176 68.098C58.5938 68.2599 58.6818 68.4574 58.6818 68.6903C58.6818 68.9205 58.5938 69.1179 58.4176 69.2827C58.2443 69.4446 58.0341 69.5256 57.7869 69.5256ZM61.6829 73.1648V77H60.1403V70.4545H61.6147V71.5668H61.6914C61.842 71.2003 62.082 70.9091 62.4116 70.6932C62.744 70.4773 63.1545 70.3693 63.6431 70.3693C64.0948 70.3693 64.4883 70.4659 64.8235 70.6591C65.1616 70.8523 65.4229 71.1321 65.6076 71.4986C65.7951 71.8651 65.8874 72.3097 65.8846 72.8324V77H64.342V73.071C64.342 72.6335 64.2283 72.2912 64.0011 72.044C63.7766 71.7969 63.4656 71.6733 63.0678 71.6733C62.7979 71.6733 62.5579 71.733 62.3477 71.8523C62.1403 71.9687 61.9769 72.1378 61.8576 72.3594C61.7411 72.581 61.6829 72.8494 61.6829 73.1648ZM70.2994 79.5909C69.7454 79.5909 69.2695 79.5156 68.8718 79.3651C68.4741 79.2173 68.1545 79.0185 67.913 78.7685C67.6715 78.5185 67.5039 78.2415 67.4102 77.9375L68.7994 77.6009C68.8619 77.7287 68.9528 77.8551 69.0721 77.9801C69.1914 78.108 69.3519 78.2131 69.5536 78.2955C69.7582 78.3807 70.0153 78.4233 70.3249 78.4233C70.7624 78.4233 71.1246 78.3168 71.4116 78.1037C71.6985 77.8935 71.842 77.5469 71.842 77.0639V75.8239H71.7653C71.6857 75.983 71.5692 76.1463 71.4158 76.3139C71.2653 76.4815 71.065 76.6222 70.815 76.7358C70.5678 76.8494 70.2567 76.9062 69.8817 76.9062C69.3789 76.9062 68.9229 76.7884 68.5138 76.5526C68.1076 76.3139 67.7837 75.9588 67.5423 75.4872C67.3036 75.0128 67.1843 74.419 67.1843 73.706C67.1843 72.9872 67.3036 72.3807 67.5423 71.8864C67.7837 71.3892 68.109 71.0128 68.5181 70.7571C68.9272 70.4986 69.3832 70.3693 69.886 70.3693C70.2695 70.3693 70.5849 70.4347 70.832 70.5653C71.082 70.6932 71.2809 70.848 71.4286 71.0298C71.5763 71.2088 71.6886 71.3778 71.7653 71.5369H71.8505V70.4545H73.3718V77.1065C73.3718 77.6662 73.2383 78.1293 72.9712 78.4957C72.7042 78.8622 72.3391 79.1364 71.8761 79.3182C71.413 79.5 70.8874 79.5909 70.2994 79.5909ZM70.3121 75.696C70.6388 75.696 70.9173 75.6165 71.1474 75.4574C71.3775 75.2983 71.5522 75.0696 71.6715 74.7713C71.7908 74.473 71.8505 74.1151 71.8505 73.6974C71.8505 73.2855 71.7908 72.9247 71.6715 72.6151C71.555 72.3054 71.3817 72.0653 71.1516 71.8949C70.9244 71.7216 70.6445 71.6349 70.3121 71.6349C69.9684 71.6349 69.6815 71.7244 69.4513 71.9034C69.2212 72.0824 69.0479 72.3281 68.9315 72.6406C68.815 72.9503 68.7567 73.3026 68.7567 73.6974C68.7567 74.098 68.815 74.4489 68.9315 74.75C69.0508 75.0483 69.2255 75.2812 69.4556 75.4489C69.6886 75.6136 69.9741 75.696 70.3121 75.696Z" fill="#1E1E1E"/>
</svg>
