<svg width="100" height="100" viewBox="0 0 100 100" fill="none" xmlns="http://www.w3.org/2000/svg">
<rect width="100" height="100" rx="50" fill="#F9A73E"/>
<path d="M43.8334 25.3333V30.3333" stroke="#1E1E1E" stroke-width="1.5" stroke-miterlimit="10" stroke-linecap="round" stroke-linejoin="round"/>
<path d="M57.1666 25.3333V30.3333" stroke="#1E1E1E" stroke-width="1.5" stroke-miterlimit="10" stroke-linecap="round" stroke-linejoin="round"/>
<path d="M36.3334 37.15H64.6667" stroke="#1E1E1E" stroke-width="1.5" stroke-miterlimit="10" stroke-linecap="round" stroke-linejoin="round"/>
<path d="M65.5 36.1667V50.3333C65.5 55.3333 63 58.6667 57.1667 58.6667H43.8333C38 58.6667 35.5 55.3333 35.5 50.3333V36.1667C35.5 31.1667 38 27.8333 43.8333 27.8333H57.1667C63 27.8333 65.5 31.1667 65.5 36.1667Z" stroke="#1E1E1E" stroke-width="1.5" stroke-miterlimit="10" stroke-linecap="round" stroke-linejoin="round"/>
<path d="M56.6578 44.8334H56.6728" stroke="#1E1E1E" stroke-width="2" stroke-linecap="round" stroke-linejoin="round"/>
<path d="M56.6578 49.8334H56.6728" stroke="#1E1E1E" stroke-width="2" stroke-linecap="round" stroke-linejoin="round"/>
<path d="M50.4925 44.8334H50.5075" stroke="#1E1E1E" stroke-width="2" stroke-linecap="round" stroke-linejoin="round"/>
<path d="M50.4925 49.8334H50.5075" stroke="#1E1E1E" stroke-width="2" stroke-linecap="round" stroke-linejoin="round"/>
<path d="M44.3238 44.8334H44.3388" stroke="#1E1E1E" stroke-width="2" stroke-linecap="round" stroke-linejoin="round"/>
<path d="M44.3238 49.8334H44.3388" stroke="#1E1E1E" stroke-width="2" stroke-linecap="round" stroke-linejoin="round"/>
<path d="M18.8608 67.2727H20.7955L23.3864 73.5966H23.4886L26.0795 67.2727H28.0142V76H26.4972V70.0043H26.4162L24.0043 75.9744H22.8707L20.4588 69.9915H20.3778V76H18.8608V67.2727ZM31.5511 76.1321C31.1364 76.1321 30.7628 76.0582 30.4304 75.9105C30.1009 75.7599 29.8395 75.5384 29.6463 75.2457C29.456 74.9531 29.3608 74.5923 29.3608 74.1634C29.3608 73.794 29.429 73.4886 29.5653 73.2472C29.7017 73.0057 29.8878 72.8125 30.1236 72.6676C30.3594 72.5227 30.625 72.4134 30.9205 72.3395C31.2188 72.2628 31.527 72.2074 31.8452 72.1733C32.2287 72.1335 32.5398 72.098 32.7784 72.0668C33.017 72.0327 33.1903 71.9815 33.2983 71.9134C33.4091 71.8423 33.4645 71.733 33.4645 71.5852V71.5597C33.4645 71.2386 33.3693 70.9901 33.179 70.8139C32.9886 70.6378 32.7145 70.5497 32.3565 70.5497C31.9787 70.5497 31.679 70.6321 31.4574 70.7969C31.2386 70.9616 31.0909 71.1562 31.0142 71.3807L29.5739 71.1761C29.6875 70.7784 29.875 70.446 30.1364 70.179C30.3977 69.9091 30.7173 69.7074 31.0952 69.5739C31.473 69.4375 31.8906 69.3693 32.348 69.3693C32.6634 69.3693 32.9773 69.4062 33.2898 69.4801C33.6023 69.554 33.8878 69.6761 34.1463 69.8466C34.4048 70.0142 34.6122 70.2429 34.7685 70.5327C34.9276 70.8224 35.0071 71.1847 35.0071 71.6193V76H33.5241V75.1009H33.473C33.3793 75.2827 33.2472 75.4531 33.0767 75.6122C32.9091 75.7685 32.6974 75.8949 32.4418 75.9915C32.1889 76.0852 31.892 76.1321 31.5511 76.1321ZM31.9517 74.9986C32.2614 74.9986 32.5298 74.9375 32.7571 74.8153C32.9844 74.6903 33.1591 74.5256 33.2812 74.321C33.4062 74.1165 33.4688 73.8935 33.4688 73.652V72.8807C33.4205 72.9205 33.3381 72.9574 33.2216 72.9915C33.108 73.0256 32.9801 73.0554 32.8381 73.081C32.696 73.1065 32.5554 73.1293 32.4162 73.1491C32.277 73.169 32.1563 73.1861 32.054 73.2003C31.8239 73.2315 31.6179 73.2827 31.4361 73.3537C31.2543 73.4247 31.1108 73.5241 31.0057 73.652C30.9006 73.777 30.848 73.9389 30.848 74.1378C30.848 74.4219 30.9517 74.6364 31.1591 74.7812C31.3665 74.9261 31.6307 74.9986 31.9517 74.9986ZM36.5582 76V69.4545H38.1009V76H36.5582ZM37.3338 68.5256C37.0895 68.5256 36.8793 68.4446 36.7031 68.2827C36.527 68.1179 36.4389 67.9205 36.4389 67.6903C36.4389 67.4574 36.527 67.2599 36.7031 67.098C36.8793 66.9332 37.0895 66.8509 37.3338 66.8509C37.581 66.8509 37.7912 66.9332 37.9645 67.098C38.1406 67.2599 38.2287 67.4574 38.2287 67.6903C38.2287 67.9205 38.1406 68.1179 37.9645 68.2827C37.7912 68.4446 37.581 68.5256 37.3338 68.5256ZM41.2298 72.1648V76H39.6871V69.4545H41.1616V70.5668H41.2383C41.3888 70.2003 41.6289 69.9091 41.9585 69.6932C42.2908 69.4773 42.7013 69.3693 43.19 69.3693C43.6417 69.3693 44.0352 69.4659 44.3704 69.6591C44.7085 69.8523 44.9698 70.1321 45.1545 70.4986C45.342 70.8651 45.4343 71.3097 45.4315 71.8324V76H43.8888V72.071C43.8888 71.6335 43.7752 71.2912 43.5479 71.044C43.3235 70.7969 43.0124 70.6733 42.6147 70.6733C42.3448 70.6733 42.1048 70.733 41.8945 70.8523C41.6871 70.9687 41.5238 71.1378 41.4045 71.3594C41.288 71.581 41.2298 71.8494 41.2298 72.1648ZM50.0444 76V67.2727H55.7205V68.598H51.6254V70.9673H55.4265V72.2926H51.6254V74.6747H55.7546V76H50.0444ZM63.1119 69.4545L60.7809 76H59.0763L56.7454 69.4545H58.3903L59.8945 74.3168H59.9627L61.4712 69.4545H63.1119ZM66.8544 76.1278C66.1982 76.1278 65.6314 75.9915 65.1541 75.7188C64.6797 75.4432 64.3146 75.054 64.0589 74.5511C63.8033 74.0455 63.6754 73.4503 63.6754 72.7656C63.6754 72.0923 63.8033 71.5014 64.0589 70.9929C64.3175 70.4815 64.6783 70.0838 65.1413 69.7997C65.6044 69.5128 66.1484 69.3693 66.7734 69.3693C67.1768 69.3693 67.5575 69.4347 67.9155 69.5653C68.2763 69.6932 68.5945 69.892 68.87 70.1619C69.1484 70.4318 69.3672 70.7756 69.5263 71.1932C69.6854 71.608 69.7649 72.1023 69.7649 72.6761V73.1491H64.3999V72.1094H68.2862C68.2834 71.8139 68.2195 71.5511 68.0945 71.321C67.9695 71.0881 67.7947 70.9048 67.5703 70.7713C67.3487 70.6378 67.0902 70.571 66.7947 70.571C66.4794 70.571 66.2024 70.6477 65.9638 70.8011C65.7251 70.9517 65.5391 71.1506 65.4055 71.3977C65.2749 71.642 65.2081 71.9105 65.2053 72.2031V73.1108C65.2053 73.4915 65.2749 73.8182 65.4141 74.0909C65.5533 74.3608 65.7479 74.5682 65.9979 74.7131C66.2479 74.8551 66.5405 74.9261 66.8757 74.9261C67.1001 74.9261 67.3033 74.8949 67.4851 74.8324C67.6669 74.767 67.8246 74.6719 67.9581 74.5469C68.0916 74.4219 68.1925 74.267 68.2607 74.0824L69.701 74.2443C69.6101 74.625 69.4368 74.9574 69.1811 75.2415C68.9283 75.5227 68.6044 75.7415 68.2095 75.8977C67.8146 76.0511 67.3629 76.1278 66.8544 76.1278ZM72.6126 72.1648V76H71.07V69.4545H72.5444V70.5668H72.6211C72.7717 70.2003 73.0117 69.9091 73.3413 69.6932C73.6737 69.4773 74.0842 69.3693 74.5728 69.3693C75.0245 69.3693 75.418 69.4659 75.7532 69.6591C76.0913 69.8523 76.3526 70.1321 76.5373 70.4986C76.7248 70.8651 76.8171 71.3097 76.8143 71.8324V76H75.2717V72.071C75.2717 71.6335 75.158 71.2912 74.9308 71.044C74.7063 70.7969 74.3952 70.6733 73.9975 70.6733C73.7276 70.6733 73.4876 70.733 73.2773 70.8523C73.07 70.9687 72.9066 71.1378 72.7873 71.3594C72.6708 71.581 72.6126 71.8494 72.6126 72.1648ZM81.6509 69.4545V70.6477H77.8881V69.4545H81.6509ZM78.8171 67.8864H80.3597V74.0312C80.3597 74.2386 80.391 74.3977 80.4535 74.5085C80.5188 74.6165 80.604 74.6903 80.7092 74.7301C80.8143 74.7699 80.9308 74.7898 81.0586 74.7898C81.1552 74.7898 81.2433 74.7827 81.3228 74.7685C81.4052 74.7543 81.4677 74.7415 81.5103 74.7301L81.7702 75.9361C81.6879 75.9645 81.57 75.9957 81.4165 76.0298C81.266 76.0639 81.0813 76.0838 80.8626 76.0895C80.4762 76.1009 80.1282 76.0426 79.8185 75.9148C79.5089 75.7841 79.2631 75.5824 79.0813 75.3097C78.9023 75.0369 78.8143 74.696 78.8171 74.2869V67.8864Z" fill="#1E1E1E"/>
</svg>
