<svg width="100" height="100" viewBox="0 0 100 100" fill="none" xmlns="http://www.w3.org/2000/svg">
<rect x="1" y="1" width="98" height="98" rx="49" stroke="#F9A73E" stroke-width="2"/>
<path d="M50.4999 58.6667C59.6666 58.6667 67.1666 51.1667 67.1666 42C67.1666 32.8333 59.6666 25.3333 50.4999 25.3333C41.3333 25.3333 33.8333 32.8333 33.8333 42C33.8333 51.1667 41.3333 58.6667 50.4999 58.6667Z" stroke="#F9A73E" stroke-width="2" stroke-linecap="round" stroke-linejoin="round"/>
<path d="M43.4167 42L48.1334 46.7166L57.5834 37.2833" stroke="#F9A73E" stroke-width="2" stroke-linecap="round" stroke-linejoin="round"/>
<path d="M29.4773 68.598V67.2727H36.4403V68.598H33.7429V76H32.1747V68.598H29.4773ZM39.2571 72.1648V76H37.7145V67.2727H39.223V70.5668H39.2997C39.4531 70.1974 39.6903 69.9062 40.0114 69.6932C40.3352 69.4773 40.7472 69.3693 41.2472 69.3693C41.7017 69.3693 42.098 69.4645 42.4361 69.6548C42.7741 69.8452 43.0355 70.1236 43.2202 70.4901C43.4077 70.8565 43.5014 71.304 43.5014 71.8324V76H41.9588V72.071C41.9588 71.6307 41.8452 71.2884 41.6179 71.044C41.3935 70.7969 41.0781 70.6733 40.6719 70.6733C40.3991 70.6733 40.1548 70.733 39.9389 70.8523C39.7259 70.9687 39.5582 71.1378 39.4361 71.3594C39.3168 71.581 39.2571 71.8494 39.2571 72.1648ZM46.9574 76.1321C46.5426 76.1321 46.169 76.0582 45.8366 75.9105C45.5071 75.7599 45.2457 75.5384 45.0526 75.2457C44.8622 74.9531 44.767 74.5923 44.767 74.1634C44.767 73.794 44.8352 73.4886 44.9716 73.2472C45.108 73.0057 45.294 72.8125 45.5298 72.6676C45.7656 72.5227 46.0313 72.4134 46.3267 72.3395C46.625 72.2628 46.9332 72.2074 47.2514 72.1733C47.6349 72.1335 47.946 72.098 48.1847 72.0668C48.4233 72.0327 48.5966 71.9815 48.7045 71.9134C48.8153 71.8423 48.8707 71.733 48.8707 71.5852V71.5597C48.8707 71.2386 48.7756 70.9901 48.5852 70.8139C48.3949 70.6378 48.1207 70.5497 47.7628 70.5497C47.3849 70.5497 47.0852 70.6321 46.8636 70.7969C46.6449 70.9616 46.4972 71.1562 46.4205 71.3807L44.9801 71.1761C45.0938 70.7784 45.2813 70.446 45.5426 70.179C45.804 69.9091 46.1236 69.7074 46.5014 69.5739C46.8793 69.4375 47.2969 69.3693 47.7543 69.3693C48.0696 69.3693 48.3835 69.4062 48.696 69.4801C49.0085 69.554 49.294 69.6761 49.5526 69.8466C49.8111 70.0142 50.0185 70.2429 50.1747 70.5327C50.3338 70.8224 50.4134 71.1847 50.4134 71.6193V76H48.9304V75.1009H48.8793C48.7855 75.2827 48.6534 75.4531 48.483 75.6122C48.3153 75.7685 48.1037 75.8949 47.848 75.9915C47.5952 76.0852 47.2983 76.1321 46.9574 76.1321ZM47.358 74.9986C47.6676 74.9986 47.9361 74.9375 48.1634 74.8153C48.3906 74.6903 48.5653 74.5256 48.6875 74.321C48.8125 74.1165 48.875 73.8935 48.875 73.652V72.8807C48.8267 72.9205 48.7443 72.9574 48.6278 72.9915C48.5142 73.0256 48.3864 73.0554 48.2443 73.081C48.1023 73.1065 47.9616 73.1293 47.8224 73.1491C47.6832 73.169 47.5625 73.1861 47.4602 73.2003C47.2301 73.2315 47.0241 73.2827 46.8423 73.3537C46.6605 73.4247 46.517 73.5241 46.4119 73.652C46.3068 73.777 46.2543 73.9389 46.2543 74.1378C46.2543 74.4219 46.358 74.6364 46.5653 74.7812C46.7727 74.9261 47.0369 74.9986 47.358 74.9986ZM53.5071 72.1648V76H51.9645V69.4545H53.4389V70.5668H53.5156C53.6662 70.2003 53.9063 69.9091 54.2358 69.6932C54.5682 69.4773 54.9787 69.3693 55.4673 69.3693C55.919 69.3693 56.3125 69.4659 56.6477 69.6591C56.9858 69.8523 57.2472 70.1321 57.4318 70.4986C57.6193 70.8651 57.7116 71.3097 57.7088 71.8324V76H56.1662V72.071C56.1662 71.6335 56.0526 71.2912 55.8253 71.044C55.6009 70.7969 55.2898 70.6733 54.892 70.6733C54.6222 70.6733 54.3821 70.733 54.1719 70.8523C53.9645 70.9687 53.8011 71.1378 53.6818 71.3594C53.5653 71.581 53.5071 71.8494 53.5071 72.1648ZM60.6832 73.946L60.679 72.0838H60.9261L63.2784 69.4545H65.081L62.1875 72.6761H61.8679L60.6832 73.946ZM59.277 76V67.2727H60.8196V76H59.277ZM63.3849 76L61.2543 73.0213L62.294 71.9347L65.2301 76H63.3849ZM71.2823 71.1847L69.8761 71.3381C69.8363 71.196 69.7667 71.0625 69.6673 70.9375C69.5707 70.8125 69.44 70.7116 69.2752 70.6349C69.1104 70.5582 68.9087 70.5199 68.6701 70.5199C68.3491 70.5199 68.0792 70.5895 67.8604 70.7287C67.6445 70.8679 67.538 71.0483 67.5408 71.2699C67.538 71.4602 67.6076 71.6151 67.7496 71.7344C67.8945 71.8537 68.1332 71.9517 68.4656 72.0284L69.582 72.267C70.2013 72.4006 70.6616 72.6122 70.9627 72.902C71.2667 73.1918 71.4201 73.571 71.4229 74.0398C71.4201 74.4517 71.2994 74.8153 71.0607 75.1307C70.8249 75.4432 70.4968 75.6875 70.0763 75.8636C69.6559 76.0398 69.1729 76.1278 68.6275 76.1278C67.8263 76.1278 67.1815 75.9602 66.6928 75.625C66.2042 75.2869 65.913 74.8168 65.8192 74.2145L67.3235 74.0696C67.3917 74.3651 67.5366 74.5881 67.7582 74.7386C67.9798 74.8892 68.2681 74.9645 68.6232 74.9645C68.9897 74.9645 69.2837 74.8892 69.5053 74.7386C69.7298 74.5881 69.842 74.402 69.842 74.1804C69.842 73.9929 69.7695 73.8381 69.6246 73.7159C69.4826 73.5937 69.261 73.5 68.9599 73.4347L67.8434 73.2003C67.2156 73.0696 66.7511 72.8494 66.4499 72.5398C66.1488 72.2273 65.9996 71.8324 66.0025 71.3551C65.9996 70.9517 66.109 70.6023 66.3306 70.3068C66.555 70.0085 66.8661 69.7784 67.2638 69.6165C67.6644 69.4517 68.1261 69.3693 68.6488 69.3693C69.4158 69.3693 70.0195 69.5327 70.4599 69.8594C70.9031 70.1861 71.1772 70.6278 71.2823 71.1847Z" fill="#F9A73E"/>
</svg>
