<svg width="100" height="100" viewBox="0 0 100 100" fill="none" xmlns="http://www.w3.org/2000/svg">
<rect width="100" height="100" rx="50" fill="#F9A73E"/>
<path d="M44.9999 58.6667H54.9999C63.3333 58.6667 66.6666 55.3333 66.6666 47V37C66.6666 28.6667 63.3333 25.3333 54.9999 25.3333H44.9999C36.6666 25.3333 33.3333 28.6667 33.3333 37V47C33.3333 55.3333 36.6666 58.6667 44.9999 58.6667Z" stroke="#1E1E1E" stroke-width="2" stroke-linecap="round" stroke-linejoin="round"/>
<path d="M58.3334 26.0667V42.7C58.3334 45.9833 55.9834 47.2667 53.1001 45.5333L50.9001 44.2167C50.4001 43.9167 49.6001 43.9167 49.1001 44.2167L46.9001 45.5333C44.0167 47.25 41.6667 45.9833 41.6667 42.7V26.0667" stroke="#1E1E1E" stroke-width="2" stroke-linecap="round" stroke-linejoin="round"/>
<path d="M44.9999 58.6667H54.9999C63.3333 58.6667 66.6666 55.3333 66.6666 47V37C66.6666 28.6667 63.3333 25.3333 54.9999 25.3333H44.9999C36.6666 25.3333 33.3333 28.6667 33.3333 37V47C33.3333 55.3333 36.6666 58.6667 44.9999 58.6667Z" stroke="#1E1E1E" stroke-width="2" stroke-linecap="round" stroke-linejoin="round"/>
<path d="M58.3334 26.0667V42.7C58.3334 45.9833 55.9834 47.2667 53.1001 45.5333L50.9001 44.2167C50.4001 43.9167 49.6001 43.9167 49.1001 44.2167L46.9001 45.5333C44.0167 47.25 41.6667 45.9833 41.6667 42.7V26.0667" stroke="#1E1E1E" stroke-width="2" stroke-linecap="round" stroke-linejoin="round"/>
<path d="M34.3608 76V67.2727H37.6335C38.304 67.2727 38.8665 67.3892 39.321 67.6222C39.7784 67.8551 40.1236 68.1818 40.3565 68.6023C40.5923 69.0199 40.7102 69.5071 40.7102 70.0639C40.7102 70.6236 40.5909 71.1094 40.3523 71.5213C40.1165 71.9304 39.7685 72.2472 39.3082 72.4716C38.848 72.6932 38.2827 72.804 37.6122 72.804H35.2812V71.4915H37.3991C37.7912 71.4915 38.1122 71.4375 38.3622 71.3295C38.6122 71.2187 38.7969 71.0582 38.9162 70.848C39.0384 70.6349 39.0994 70.3736 39.0994 70.0639C39.0994 69.7543 39.0384 69.4901 38.9162 69.2713C38.794 69.0497 38.608 68.8821 38.358 68.7685C38.108 68.652 37.7855 68.5938 37.3906 68.5938H35.9418V76H34.3608ZM38.8693 72.0455L41.0298 76H39.2656L37.1435 72.0455H38.8693ZM46.9084 69.6719C46.8686 69.2997 46.701 69.0099 46.4055 68.8026C46.1129 68.5952 45.7322 68.4915 45.2635 68.4915C44.9339 68.4915 44.6513 68.5412 44.4155 68.6406C44.1797 68.7401 43.9993 68.875 43.8743 69.0455C43.7493 69.2159 43.6854 69.4105 43.6825 69.6293C43.6825 69.8111 43.7237 69.9687 43.8061 70.1023C43.8913 70.2358 44.0064 70.3494 44.1513 70.4432C44.2962 70.5341 44.4567 70.6108 44.6328 70.6733C44.8089 70.7358 44.9865 70.7884 45.1655 70.831L45.9837 71.0355C46.3132 71.1122 46.63 71.2159 46.9339 71.3466C47.2408 71.4773 47.5149 71.642 47.7564 71.8409C48.0007 72.0398 48.1939 72.2798 48.3359 72.5611C48.478 72.8423 48.549 73.1719 48.549 73.5497C48.549 74.0611 48.4183 74.5114 48.157 74.9006C47.8956 75.2869 47.5178 75.5895 47.0234 75.8082C46.532 76.0241 45.9368 76.1321 45.2379 76.1321C44.5589 76.1321 43.9695 76.027 43.4695 75.8168C42.9723 75.6065 42.5831 75.2997 42.3018 74.8963C42.0234 74.4929 41.8729 74.0014 41.8501 73.4219H43.4055C43.4283 73.7259 43.522 73.9787 43.6868 74.1804C43.8516 74.3821 44.0661 74.5327 44.3303 74.6321C44.5973 74.7315 44.8956 74.7812 45.2251 74.7812C45.5689 74.7812 45.87 74.7301 46.1286 74.6278C46.3899 74.5227 46.5945 74.3778 46.7422 74.1932C46.8899 74.0057 46.9652 73.7869 46.968 73.5369C46.9652 73.3097 46.8984 73.1222 46.7678 72.9744C46.6371 72.8239 46.4538 72.6989 46.218 72.5994C45.9851 72.4972 45.7124 72.4062 45.3999 72.3267L44.407 72.071C43.6882 71.8864 43.12 71.6065 42.7024 71.2315C42.2876 70.8537 42.0803 70.3523 42.0803 69.7273C42.0803 69.2131 42.2195 68.7628 42.4979 68.3764C42.7791 67.9901 43.1612 67.6903 43.6442 67.4773C44.1271 67.2614 44.674 67.1534 45.2848 67.1534C45.9041 67.1534 46.4467 67.2614 46.9126 67.4773C47.3814 67.6903 47.7493 67.9872 48.0163 68.3679C48.2834 68.7457 48.4212 69.1804 48.4297 69.6719H46.9084ZM51.1261 67.2727L53.3974 74.142H53.4869L55.7539 67.2727H57.4925L54.4158 76H52.4641L49.3917 67.2727H51.1261ZM58.642 76V67.2727H61.9148C62.5852 67.2727 63.1477 67.3977 63.6023 67.6477C64.0597 67.8977 64.4048 68.2415 64.6378 68.679C64.8736 69.1136 64.9915 69.608 64.9915 70.1619C64.9915 70.7216 64.8736 71.2187 64.6378 71.6534C64.402 72.0881 64.054 72.4304 63.5938 72.6804C63.1335 72.9276 62.5668 73.0511 61.8935 73.0511H59.7244V71.7514H61.6804C62.0724 71.7514 62.3935 71.6832 62.6435 71.5469C62.8935 71.4105 63.0781 71.223 63.1974 70.9844C63.3196 70.7457 63.3807 70.4716 63.3807 70.1619C63.3807 69.8523 63.3196 69.5795 63.1974 69.3438C63.0781 69.108 62.892 68.9247 62.6392 68.794C62.3892 68.6605 62.0668 68.5938 61.6719 68.5938H60.223V76H58.642Z" fill="#1E1E1E"/>
</svg>
