<svg width="32" height="32" viewBox="0 0 32 32" fill="none" xmlns="http://www.w3.org/2000/svg">
<path fill-rule="evenodd" clip-rule="evenodd" d="M4 0C1.79077 0 0 1.79102 0 4V28C0 30.209 1.79077 32 4 32H28C30.2092 32 32 30.209 32 28V4C32 1.79102 30.2092 0 28 0H4ZM10 4H22C25.2998 4 28 6.69922 28 10V22C28 25.2998 25.2998 28 22 28H10C6.7002 28 4 25.2998 4 22V10C4 6.69922 6.7002 4 10 4ZM11 16C11 18.7607 13.2383 21 16 21C18.7605 21 21 18.7607 21 16C21 13.2383 18.7605 11 16 11C13.2383 11 11 13.2383 11 16ZM21 9.5C21 10.3281 21.6709 11 22.5 11C23.3293 11 24 10.3281 24 9.5C24 8.67188 23.3293 8 22.5 8C21.6709 8 21 8.67188 21 9.5Z" fill="white"/>
</svg>
