<svg width="32" height="32" viewBox="0 0 32 32" fill="none" xmlns="http://www.w3.org/2000/svg">
<path fill-rule="evenodd" clip-rule="evenodd" d="M4 0C1.79077 0 0 1.79102 0 4V28C0 30.209 1.79077 32 4 32H28C30.2092 32 32 30.209 32 28V4C32 1.79102 30.2092 0 28 0H4ZM9.33325 6.02246C11.3066 4.7041 13.6267 4 16 4C19.1826 4 22.2349 5.26465 24.4854 7.51465C26.7356 9.76562 28 12.8174 28 16C28 18.373 27.2961 20.6934 25.9775 22.667C24.6592 24.6406 22.7849 26.1787 20.5923 27.0869C18.3994 27.9951 15.9866 28.2324 13.6589 27.7695C11.3311 27.3066 9.19287 26.1631 7.51465 24.4854C5.83643 22.8066 4.6936 20.6689 4.23047 18.3408C3.76758 16.0137 4.00513 13.6006 4.91333 11.4082C5.82178 9.21484 7.35986 7.34082 9.33325 6.02246ZM12.9058 20.2861C13.5315 24.083 14.9285 26.2861 16 26.2861C17.0715 26.2861 18.4685 24.083 19.0942 20.2861H12.9058ZM12.6201 17.6553C12.6389 17.9678 12.6628 18.2734 12.6914 18.5713H19.3086C19.3857 17.7656 19.4285 16.9082 19.4285 16C19.4285 15.0918 19.3857 14.2344 19.3086 13.4287H12.6914C12.6143 14.2344 12.5715 15.0918 12.5715 16C12.5715 16.5723 12.5884 17.124 12.6201 17.6553ZM6.04858 13.4287C5.83203 14.2686 5.71973 15.1328 5.71436 16C5.71973 16.8672 5.83203 17.7314 6.04858 18.5713H10.9771C10.8999 17.7139 10.8572 16.8574 10.8572 16C10.8572 15.1426 10.8999 14.2861 10.9771 13.4287H6.04858ZM19.0942 11.7139C18.4685 7.91699 17.0715 5.71387 16 5.71387C14.9285 5.71387 13.5315 7.91699 12.9058 11.7139H19.0942ZM25.9514 13.4287H21.0229C21.1428 14.2861 21.1428 15.1426 21.1428 16C21.1428 16.8574 21.1428 17.7139 21.0229 18.5713H25.9514C26.3972 16.8857 26.3972 15.1143 25.9514 13.4287ZM20.8171 11.7139H25.3086H25.3342C24.73 10.4014 23.8569 9.22949 22.772 8.27344C21.6868 7.31836 20.4136 6.60156 19.0342 6.16895C19.9592 7.89355 20.5635 9.77344 20.8171 11.7139ZM11.1829 11.7139C11.4365 9.77344 12.0408 7.89355 12.9658 6.16895C11.5864 6.60156 10.3132 7.31836 9.22803 8.27344C8.14307 9.22949 7.27002 10.4014 6.66577 11.7139H11.1829ZM11.1829 20.2861H6.66577C7.09985 21.2295 7.67261 22.0996 8.36304 22.8691C8.63379 23.1709 8.92261 23.457 9.22803 23.7266C10.3132 24.6816 11.5864 25.3984 12.9658 25.8311C12.0408 24.1064 11.4365 22.2266 11.1829 20.2861ZM20.8171 20.2861C20.5635 22.2266 19.9592 24.1064 19.0342 25.8311C20.4136 25.3984 21.6868 24.6816 22.772 23.7266C23.8569 22.7705 24.73 21.5986 25.3342 20.2861H20.8171Z" fill="white"/>
</svg>
