<svg width="32" height="32" viewBox="0 0 32 32" fill="none" xmlns="http://www.w3.org/2000/svg">
<path fill-rule="evenodd" clip-rule="evenodd" d="M0 4C0 1.79102 1.79077 0 4 0H28C30.2092 0 32 1.79102 32 4V28C32 30.209 30.2092 32 28 32H4C1.79077 32 0 30.209 0 28V4ZM23.1121 8.96484C21.4336 7.27051 19.2048 6.23047 16.8274 6.03418C14.4502 5.83789 12.0808 6.49707 10.147 7.89355C8.21313 9.29004 6.8418 11.332 6.28076 13.6504C5.71948 15.9688 6.00537 18.4111 7.08667 20.5381L6.02539 25.6904C6.01416 25.7422 6.01392 25.7949 6.02441 25.8467C6.03467 25.8975 6.05566 25.9463 6.08569 25.9893C6.12988 26.0547 6.19287 26.1045 6.26611 26.1338C6.31079 26.1514 6.35791 26.1592 6.40503 26.1602C6.43555 26.1602 6.46631 26.1562 6.49634 26.1494L11.5466 24.9521C13.667 26.0059 16.0925 26.2734 18.3916 25.707C20.6904 25.1406 22.7141 23.7764 24.1018 21.8584C25.4897 19.9395 26.1519 17.5908 25.9707 15.2305C25.7893 12.8691 24.7764 10.6494 23.1121 8.96484ZM21.5374 21.5332C20.376 22.6914 18.8809 23.4561 17.262 23.7188C15.6433 23.9814 13.9829 23.7305 12.5146 23L11.8108 22.6514L8.7146 23.3848L8.72363 23.3457L9.36523 20.2295L9.02075 19.5498C8.65649 18.834 8.40674 18.0713 8.27588 17.29C8.13696 16.4609 8.13159 15.6104 8.26465 14.7705C8.52344 13.1377 9.29248 11.6279 10.4614 10.459C11.9304 8.99121 13.9224 8.16602 15.9995 8.16602C18.0764 8.16602 20.0684 8.99121 21.5374 10.459L21.5776 10.499C23.0283 11.9717 23.8381 13.958 23.8306 16.0244C23.8232 18.0918 22.9988 20.0713 21.5374 21.5332ZM20.4399 19.7979C20.7207 19.5225 20.957 19.2002 21.1414 18.9102C21.1997 18.8145 21.2356 18.707 21.2458 18.5957C21.2563 18.4844 21.241 18.373 21.2014 18.2686C21.1619 18.1631 21.0989 18.0693 21.0173 17.9932C20.9827 17.9609 20.9451 17.9316 20.905 17.9072C20.8508 17.873 20.7922 17.8457 20.731 17.8271L18.7932 17.2773C18.6685 17.2412 18.5366 17.2402 18.4109 17.2725C18.2854 17.3047 18.1707 17.3691 18.0784 17.46L17.5999 17.9424C17.5024 18.043 17.3774 18.1123 17.2405 18.1406C17.1035 18.1699 16.9612 18.1562 16.8318 18.1035C16.3479 17.9092 15.5833 17.3389 14.894 16.7158C14.7014 16.543 14.5149 16.3652 14.3423 16.1914C13.9646 15.8096 13.6538 15.4414 13.4954 15.1631C13.4258 15.04 13.3948 14.8984 13.4062 14.7578C13.4177 14.6162 13.4712 14.4824 13.5596 14.3711L13.9719 13.8359C14.0522 13.7334 14.1028 13.6113 14.1187 13.4824C14.1345 13.3525 14.115 13.2217 14.0618 13.1025L13.2461 11.2695C13.2009 11.167 13.1323 11.0762 13.0457 11.0039C12.9592 10.9326 12.8569 10.8818 12.7473 10.8574C12.6379 10.832 12.5239 10.833 12.4148 10.8594C12.3582 10.874 12.3037 10.8945 12.2524 10.9209C12.2048 10.9463 12.1599 10.9766 12.1187 11.0117C11.5779 11.4658 10.9363 12.1621 10.8594 12.9326C10.72 14.2891 11.2957 15.999 13.512 18.0547L13.543 18.082C16.0637 20.4316 18.0894 20.7402 19.4092 20.4209C19.7964 20.3271 20.1431 20.0889 20.4399 19.7979Z" fill="white"/>
</svg>
