<svg width="32" height="32" viewBox="0 0 32 32" fill="none" xmlns="http://www.w3.org/2000/svg">
<path fill-rule="evenodd" clip-rule="evenodd" d="M4.07275 0H27.9272C29.0073 0 30.0435 0.428711 30.8071 1.19336C31.5708 1.95703 32 2.99219 32 4.07227V27.9277C32 28.4932 31.8826 29.0459 31.6609 29.5537C31.4592 30.0166 31.1711 30.4424 30.8071 30.8066C30.0435 31.5713 29.0073 32 27.9272 32H26H21.0837H15.7578H7H4.07275C3.49951 32 2.93872 31.8789 2.42432 31.6514C1.96973 31.4502 1.55127 31.165 1.19287 30.8066C0.429199 30.043 0 29.0078 0 27.9277V4.07227C0 2.99219 0.429199 1.95703 1.19287 1.19336C1.95654 0.428711 2.99268 0 4.07275 0ZM15.7578 29H21.0837V18.6855H25.0359L25.5217 13.3604H21.2896V11.2305C21.2896 10.1924 21.9807 9.95117 22.4663 9.95117H25.4539V5.3877L21.3401 5.37109C16.7734 5.37109 15.7358 8.77441 15.7358 10.9531V13.3594H13.095V18.6855H15.7578V29Z" fill="white"/>
</svg>
